<svg width="91" height="97" viewBox="0 0 91 97" fill="none" xmlns="http://www.w3.org/2000/svg">
<path d="M23.6181 77.3175C25.6702 78.2449 27.0562 80.2159 27.3254 82.5905C27.332 82.6491 27.3646 82.6996 27.4134 82.7265C27.4173 82.7286 27.4215 82.7307 27.4255 82.7326C27.4719 82.7535 27.5259 82.7521 27.5738 82.7281C30.1689 81.438 33.1012 81.3505 35.6188 82.4882C36.4767 82.8758 37.2439 83.3861 37.9157 83.9897L38.6492 74.6514L28.4052 70.0225L21.8104 76.8176C22.4235 76.8896 23.0318 77.0526 23.6181 77.3175Z" fill="#D9EAFC"/>
<path d="M37.1822 73.9884L34.7295 72.8801L33.8319 75.7004C33.5901 76.4599 33.9691 77.2457 34.6759 77.4558C35.3837 77.6657 36.1536 77.2205 36.3952 76.4611L37.1822 73.9884Z" fill="#AEC1ED"/>
<path d="M29.8737 70.6854L26.7412 75.9031C26.3311 76.5863 26.5055 77.4585 27.1311 77.8509C27.1797 77.8813 27.2295 77.908 27.2804 77.931C27.8845 78.2038 28.6282 77.9543 29.0065 77.3241L32.3268 71.7937L29.8738 70.6853L29.8737 70.6854V70.6854Z" fill="#AEC1ED"/>
<path d="M32.0369 42.3946C32.6838 40.9631 33.3785 39.5578 34.1118 38.1825C29.1339 38.7971 24.0506 42.8804 21.2787 49.0146C19.8147 52.2544 19.163 55.6804 19.394 58.9223C19.4156 59.2268 19.5917 59.4748 19.8402 59.5871C19.931 59.6282 20.0314 59.6511 20.1375 59.6519C22.3583 59.6696 24.5262 60.1427 26.5852 61.052C27.4031 54.9262 29.2706 48.5163 32.0369 42.3946Z" fill="#FE3745"/>
<path d="M23.118 49.8458C25.4074 44.7792 29.274 41.1142 33.3552 39.6448C33.6031 39.1541 33.854 38.6659 34.1117 38.1825C29.1339 38.7971 24.0506 42.8805 21.2787 49.0147C19.8147 52.2544 19.163 55.6805 19.3939 58.9224C19.4156 59.2268 19.5916 59.4748 19.8402 59.5871C19.931 59.6282 20.0314 59.6512 20.1375 59.652C20.5035 59.6548 20.8676 59.6747 21.2304 59.7023C21.0099 56.4755 21.6617 53.0685 23.118 49.8458Z" fill="#B7092B"/>
<path d="M58.7741 49.3268C58.2263 50.7862 57.6309 52.2363 56.9841 53.6677C54.2179 59.7892 50.6415 65.4269 46.5843 70.0892C48.6276 71.0336 50.4152 72.3479 51.8961 74.0029C51.9668 74.082 52.0506 74.1423 52.1413 74.1833C52.39 74.2956 52.6924 74.2636 52.9351 74.0788C55.5209 72.1098 57.6614 69.3564 59.1253 66.1167C61.8974 59.9825 61.6025 53.4689 58.7741 49.3268Z" fill="#FE3745"/>
<path d="M29.4619 64.7805L27.6332 68.8274C27.4151 69.3101 27.6016 69.87 28.0478 70.0716L38.8493 74.9525C39.2954 75.1541 39.8389 74.9241 40.057 74.4414L41.8857 70.3945L29.4619 64.7805Z" fill="#FE3745"/>
<path d="M30.3922 70.0743L32.2209 66.0275L29.4619 64.7808L27.6332 68.8276C27.4151 69.3104 27.6016 69.8703 28.0478 70.0718L30.8067 71.3186C30.3606 71.117 30.1741 70.5571 30.3922 70.0743Z" fill="#B7092B"/>
<path d="M62.7436 33.9907L42.9992 25.0687C38.6393 29.8952 34.8143 35.8167 31.875 42.3214C28.8193 49.0835 26.8523 56.1986 26.1864 62.8972C26.1514 63.2505 26.3285 63.5762 26.6301 63.7124L44.5592 71.8141C44.8607 71.9504 45.2224 71.8682 45.4642 71.6084C50.0514 66.6817 54.0914 60.5033 57.147 53.7412C60.0865 47.2365 62.0027 40.4527 62.7436 33.9907Z" fill="#EEF6FF"/>
<path d="M28.4855 63.9361C29.1512 57.2375 31.1184 50.1224 34.174 43.3603C37.1134 36.8556 40.9384 30.9341 45.2983 26.1076L42.9992 25.0687C38.6393 29.8952 34.8143 35.8167 31.875 42.3214C28.8193 49.0835 26.8523 56.1987 26.1864 62.8973C26.1514 63.2505 26.3285 63.5762 26.6301 63.7124L28.9292 64.7513C28.6276 64.6151 28.4505 64.2894 28.4855 63.9361Z" fill="#D9EAFC"/>
<path d="M48.1953 27.4167L46.8791 30.3296C46.6609 30.8124 46.8475 31.3723 47.2936 31.5739L55.0224 35.0663C55.4685 35.2679 56.012 35.0379 56.2301 34.5551L57.5464 31.6423L48.1953 27.4167Z" fill="#EA2A3D"/>
<path d="M48.7184 31.1608L50.0346 28.2479L48.1953 27.4167L46.8791 30.3296C46.6609 30.8124 46.8475 31.3723 47.2936 31.5739L49.1329 32.405C48.6868 32.2034 48.5002 31.6435 48.7184 31.1608Z" fill="#B7092B"/>
<path d="M60.035 13.6754C59.8749 13.6031 59.6888 13.5885 59.505 13.6444C54.4463 15.1822 49.2173 18.6196 44.3836 23.5854C43.8694 24.1138 43.3634 24.6609 42.863 25.2188L62.7199 34.1917C62.808 33.4474 62.8841 32.7061 62.9409 31.9709C63.4733 25.0615 62.5976 18.8655 60.4084 14.0526C60.329 13.8778 60.1951 13.7478 60.035 13.6754Z" fill="#FE3745"/>
<path d="M60.8174 15.0073C60.6865 14.6836 60.5505 14.365 60.4086 14.0527C60.329 13.8778 60.1951 13.7478 60.035 13.6754C59.8749 13.6031 59.6888 13.5885 59.505 13.6443C54.4463 15.1822 49.2173 18.6196 44.3836 23.5854C43.8694 24.1138 43.3634 24.6609 42.863 25.2188L45.162 26.2577C45.6624 25.6998 46.1685 25.1527 46.6827 24.6243C51.203 19.9807 56.0684 16.6744 60.8174 15.0073Z" fill="#B7092B"/>
<path d="M22.1943 34.358C22.0082 34.2739 21.8953 34.0768 21.9081 33.8586C22.0716 31.0832 21.7303 30.0591 19.9865 28.091C19.8493 27.9363 19.8194 27.7042 19.9104 27.5028C20.0014 27.3015 20.1955 27.1706 20.4021 27.1712C23.0319 27.179 24.026 26.7581 26.0008 24.8015C26.1561 24.6476 26.3786 24.6021 26.5647 24.6862C26.7508 24.7703 26.8637 24.9674 26.8509 25.1856C26.6876 27.9609 27.0289 28.9851 28.7725 30.9536C28.9096 31.1083 28.9397 31.3405 28.8487 31.5418C28.7578 31.7432 28.5636 31.8742 28.3569 31.8734C25.7274 31.8652 24.7332 32.2859 22.7582 34.2427C22.6029 34.3966 22.3803 34.4421 22.1943 34.358Z" fill="#FFD00D"/>
<path d="M59.6703 83.3179C59.4797 83.2318 59.3641 83.0299 59.3772 82.8064C59.5447 79.9638 59.1952 78.9149 57.409 76.8993C57.2686 76.7409 57.238 76.503 57.3311 76.2969C57.4244 76.0905 57.6232 75.9567 57.8347 75.9572C60.5283 75.9652 61.5464 75.5343 63.5688 73.5302C63.728 73.3726 63.9559 73.3259 64.1465 73.4121C64.3372 73.4982 64.4528 73.7001 64.4397 73.9237C64.2724 76.7663 64.6218 77.8152 66.4079 79.8311C66.5482 79.9897 66.579 80.2272 66.4857 80.4337C66.3926 80.6397 66.1936 80.7739 65.982 80.7732C63.2888 80.7647 62.2708 81.1959 60.2478 83.1999C60.0889 83.3574 59.861 83.4041 59.6703 83.3179Z" fill="#FF9518"/>
<path d="M45.0663 57.9204C50.6208 57.6161 55.3649 52.5411 55.6625 46.5852C55.9601 40.6293 51.6986 36.0478 46.1442 36.3522C40.5897 36.6566 35.8456 41.7315 35.548 47.6874C35.2503 53.6433 39.5118 58.2248 45.0663 57.9204Z" fill="#1A2B63"/>
<path d="M43.7909 50.712C43.6274 50.6381 43.528 50.4649 43.5394 50.273C43.6831 47.8335 43.3831 46.9334 41.8502 45.2035C41.7298 45.0676 41.7033 44.8633 41.7833 44.6864C41.8633 44.5093 42.0338 44.3944 42.2156 44.3949C44.5272 44.4018 45.401 44.0319 47.1367 42.312C47.2733 42.1767 47.4689 42.1368 47.6324 42.2107C47.7959 42.2845 47.8953 42.4577 47.884 42.6496C47.7404 45.0892 48.0404 45.9893 49.5732 47.7197C49.6936 47.8557 49.7201 48.0596 49.6401 48.2367C49.5601 48.4136 49.3895 48.5287 49.2077 48.5281C46.8964 48.521 46.0226 48.8907 44.2866 50.6107C44.1503 50.7459 43.9546 50.786 43.7909 50.712Z" fill="white"/>
</svg>
