<svg width="223" height="50" viewBox="0 0 223 50" fill="none" xmlns="http://www.w3.org/2000/svg">
<path d="M0.58 -3.33786e-06H9.68V49H0.58V-3.33786e-06ZM43.3035 11.2C48.0169 11.2 51.7969 12.5767 54.6435 15.33C57.4902 18.0833 58.9135 22.1667 58.9135 27.58V49H50.1635V28.7C50.1635 25.4333 49.3935 22.9833 47.8535 21.35C46.3135 19.67 44.1202 18.83 41.2735 18.83C38.0535 18.83 35.5102 19.81 33.6435 21.77C31.7768 23.6833 30.8435 26.46 30.8435 30.1V49H22.0935V11.62H30.4235V16.45C31.8702 14.7233 33.6902 13.4167 35.8835 12.53C38.0768 11.6433 40.5502 11.2 43.3035 11.2ZM104.33 11.62L88.2998 49H79.2698L63.2398 11.62H72.3398L83.9598 39.34L95.9298 11.62H104.33ZM143.913 30.52C143.913 31.1267 143.867 31.99 143.773 33.11H114.443C114.957 35.8633 116.287 38.0567 118.433 39.69C120.627 41.2767 123.333 42.07 126.553 42.07C130.66 42.07 134.043 40.7167 136.703 38.01L141.393 43.4C139.713 45.4067 137.59 46.9233 135.023 47.95C132.457 48.9767 129.563 49.49 126.343 49.49C122.237 49.49 118.62 48.6733 115.493 47.04C112.367 45.4067 109.94 43.1433 108.213 40.25C106.533 37.31 105.693 33.9967 105.693 30.31C105.693 26.67 106.51 23.4033 108.143 20.51C109.823 17.57 112.133 15.2833 115.073 13.65C118.013 12.0167 121.327 11.2 125.013 11.2C128.653 11.2 131.897 12.0167 134.743 13.65C137.637 15.2367 139.877 17.5 141.463 20.44C143.097 23.3333 143.913 26.6933 143.913 30.52ZM125.013 18.2C122.213 18.2 119.833 19.04 117.873 20.72C115.96 22.3533 114.793 24.5467 114.373 27.3H135.583C135.21 24.5933 134.067 22.4 132.153 20.72C130.24 19.04 127.86 18.2 125.013 18.2ZM173.528 11.2C178.241 11.2 182.021 12.5767 184.868 15.33C187.715 18.0833 189.138 22.1667 189.138 27.58V49H180.388V28.7C180.388 25.4333 179.618 22.9833 178.078 21.35C176.538 19.67 174.345 18.83 171.498 18.83C168.278 18.83 165.735 19.81 163.868 21.77C162.001 23.6833 161.068 26.46 161.068 30.1V49H152.318V11.62H160.648V16.45C162.095 14.7233 163.915 13.4167 166.108 12.53C168.301 11.6433 170.775 11.2 173.528 11.2ZM222.708 46.97C221.681 47.81 220.421 48.44 218.928 48.86C217.481 49.28 215.941 49.49 214.308 49.49C210.201 49.49 207.028 48.4167 204.788 46.27C202.548 44.1233 201.428 40.9967 201.428 36.89V18.9H195.268V11.9H201.428V3.36H210.178V11.9H220.188V18.9H210.178V36.68C210.178 38.5 210.621 39.9 211.508 40.88C212.395 41.8133 213.678 42.28 215.358 42.28C217.318 42.28 218.951 41.7667 220.258 40.74L222.708 46.97Z" fill="#2E186A"/>
</svg>
